<svg width="251" height="116" viewBox="0 0 251 116" fill="none" xmlns="http://www.w3.org/2000/svg">
<path d="M0.856445 110.469V82.8449H9.00426C11.1366 82.8449 12.7414 83.3995 13.8189 84.5087C14.8962 85.6072 15.4349 87.2187 15.4349 89.3427V102.276C15.4349 104.892 14.9411 106.911 13.9535 108.334C12.9771 109.757 11.26 110.469 8.80223 110.469H0.856445ZM6.81578 105.588H7.84268C8.93131 105.588 9.47558 105.096 9.47558 104.112V89.8609C9.47558 88.9399 9.34094 88.3489 9.07156 88.087C8.81345 87.8153 8.28035 87.679 7.4723 87.679H6.81578V105.588ZM24.9295 110.72C22.5614 110.72 20.749 110.056 19.492 108.727C18.2463 107.387 17.6234 105.457 17.6234 102.935V89.8138C17.6234 87.4488 18.2406 85.6543 19.4752 84.4303C20.7209 83.2058 22.539 82.5938 24.9295 82.5938C27.32 82.5938 29.1325 83.2058 30.3669 84.4303C31.6127 85.6543 32.2356 87.4488 32.2356 89.8138V102.935C32.2356 105.457 31.6071 107.387 30.3501 108.727C29.1044 110.056 27.2975 110.72 24.9295 110.72ZM24.98 105.635C25.8778 105.635 26.3267 104.824 26.3267 103.202V89.7195C26.3267 88.3591 25.889 87.679 25.0136 87.679C24.0261 87.679 23.5323 88.375 23.5323 89.7666V103.233C23.5323 104.091 23.6445 104.709 23.8689 105.085C24.0934 105.451 24.4637 105.635 24.98 105.635ZM34.6261 110.469V82.8449H40.7201L43.4472 96.0759V82.8449H49.1709V110.469H43.3799L40.417 96.6566V110.469H34.6261ZM52.8576 92.8272L51.1742 82.8449H57.1L55.8203 92.8272H52.8576ZM61.7126 110.469V88.15H58.1941V82.8449H71.1564V88.15H67.6379V110.469H61.7126Z" fill="#41414D"/>
<path d="M82.0538 115.183L78.2361 82.0345H85.1852L87.1444 102.96L89.1445 82.0345H95.7704L97.6694 102.96L99.5684 82.0345H106.598L102.72 115.183H94.1946L92.417 99.2304L90.7203 115.183H82.0538ZM108.719 115.183V82.0345H122.941V88.4385H115.951V94.8986H122.658V101.133H115.951V108.723H123.406V115.183H108.719ZM124.799 115.183L128.234 82.0345H140.294L143.667 115.183H136.941L136.435 109.835H132.153L131.708 115.183H124.799ZM132.658 104.542H135.89L134.335 87.6851H134.011L132.658 104.542ZM145.849 115.183V82.0345H156.758C158.576 82.0345 159.949 82.4237 160.879 83.2024C161.808 83.9683 162.428 85.0484 162.737 86.4417C163.061 87.8231 163.222 89.4491 163.222 91.3199C163.222 93.1282 162.973 94.5721 162.474 95.6521C161.99 96.7317 161.067 97.4788 159.707 97.8932C160.825 98.1066 161.606 98.6278 162.051 99.4567C162.508 100.273 162.737 101.334 162.737 102.639V115.183H155.728V102.207C155.728 101.24 155.512 100.643 155.081 100.417C154.663 100.178 153.984 100.059 153.041 100.059V115.183H145.849ZM153.081 94.3149H154.798C155.781 94.3149 156.273 93.3163 156.273 91.3199C156.273 90.0269 156.165 89.1791 155.95 88.7775C155.734 88.3755 155.33 88.1745 154.737 88.1745H153.081V94.3149Z" fill="#0EB9FF"/>
<path d="M179.946 115.485C177.374 115.485 175.3 114.738 173.724 113.243C172.162 111.749 171.38 109.658 171.38 106.971V91.6777C171.38 88.4633 172.061 86.0023 173.421 84.2948C174.795 82.5869 177.024 81.7332 180.108 81.7332C181.791 81.7332 183.286 82.022 184.592 82.5998C185.912 83.1771 186.949 84.0437 187.703 85.1987C188.457 86.3413 188.834 87.7853 188.834 89.5305V95.2564H181.764V90.3594C181.764 89.3676 181.629 88.702 181.36 88.363C181.091 88.0116 180.673 87.8354 180.108 87.8354C179.447 87.8354 179.003 88.0617 178.774 88.5134C178.545 88.9532 178.431 89.5433 178.431 90.2839V106.877C178.431 107.794 178.572 108.441 178.855 108.817C179.151 109.194 179.569 109.382 180.108 109.382C180.713 109.382 181.138 109.15 181.38 108.685C181.636 108.221 181.764 107.618 181.764 106.877V100.907H188.915V107.178C188.915 110.092 188.127 112.208 186.552 113.526C184.976 114.832 182.774 115.485 179.946 115.485ZM190.329 115.183L193.764 82.0345H205.824L209.197 115.183H202.47L201.965 109.834H197.682L197.238 115.183H190.329ZM198.188 104.542H201.42L199.864 87.685H199.541L198.188 104.542ZM211.379 115.183V82.0345H220.773C222.739 82.0345 224.294 82.4425 225.439 83.2589C226.597 84.075 227.425 85.2364 227.923 86.7434C228.422 88.2499 228.671 90.0456 228.671 92.1299C228.671 94.1387 228.462 95.8903 228.045 97.3848C227.627 98.8664 226.88 100.015 225.802 100.832C224.739 101.648 223.224 102.056 221.257 102.056H218.368V115.183H211.379ZM218.368 96.1037H218.772C220.092 96.1037 220.9 95.7587 221.197 95.0679C221.493 94.3774 221.641 93.3603 221.641 92.0167C221.641 90.7614 221.493 89.7945 221.197 89.1165C220.914 88.4256 220.234 88.0806 219.156 88.0806H218.368V96.1037ZM230.934 115.183V82.0345H245.155V88.4384H238.166V94.8986H244.873V101.133H238.166V108.723H245.62V115.183H230.934Z" fill="#0EB9FF"/>
<path d="M3.50458 74.8959V1.23217H19.2166V27.5587H26.6686V1.23217H42.3806V74.8959H26.6686V41.496H19.2166V74.8959H3.50458ZM49.3837 74.8959V1.23217H80.9873V15.4627H65.4549V29.8186H80.3589V43.6724H65.4549V60.5399H82.0197V74.8959H49.3837ZM87.2721 74.8959V1.23217H111.513C115.554 1.23217 118.606 2.09715 120.671 3.82715C122.736 5.52921 124.113 7.92888 124.801 11.0261C125.52 14.0954 125.879 17.7089 125.879 21.8666C125.879 25.8846 125.325 29.0935 124.218 31.4927C123.14 33.8924 121.09 35.5527 118.068 36.4738C120.552 36.9478 122.288 38.1058 123.275 39.9475C124.293 41.7613 124.801 44.1189 124.801 47.0209V74.8959H109.224V46.0583C109.224 43.9098 108.745 42.5842 107.788 42.0823C106.859 41.5521 105.348 41.2868 103.253 41.2868V74.8959H87.2721ZM103.343 28.5213H107.159C109.344 28.5213 110.436 26.3029 110.436 21.8666C110.436 18.9925 110.197 17.1088 109.718 16.216C109.239 15.3232 108.341 14.8767 107.024 14.8767H103.343V28.5213ZM149.941 75.5654C143.626 75.5654 138.793 73.7936 135.441 70.25C132.118 66.6786 130.458 61.5304 130.458 54.8058V19.8154C130.458 13.5095 132.104 8.72412 135.396 5.45947C138.718 2.19482 143.566 0.5625 149.941 0.5625C156.315 0.5625 161.148 2.19482 164.441 5.45947C167.762 8.72412 169.424 13.5095 169.424 19.8154V54.8058C169.424 61.5304 167.748 66.6786 164.395 70.25C161.074 73.7936 156.255 75.5654 149.941 75.5654ZM150.075 62.0048C152.469 62.0048 153.666 59.8422 153.666 55.5173V19.5642C153.666 15.937 152.499 14.1233 150.165 14.1233C147.531 14.1233 146.214 15.9789 146.214 19.6898V55.6009C146.214 57.8891 146.514 59.5353 147.113 60.5399C147.711 61.5167 148.698 62.0048 150.075 62.0048ZM175.798 74.8959V1.23217H207.402V15.4627H191.869V29.8186H206.773V43.6724H191.869V60.5399H208.434V74.8959H175.798ZM232.451 75.5654C225.238 75.5654 220.031 73.8913 216.829 70.5432C213.657 67.1946 212.07 61.8651 212.07 54.5547V47.3557H227.692V56.5639C227.692 58.2658 227.962 59.6052 228.5 60.5819C229.069 61.5304 230.042 62.0048 231.419 62.0048C232.855 62.0048 233.842 61.614 234.381 60.8331C234.95 60.0518 235.234 58.7681 235.234 56.9822C235.234 54.7222 234.995 52.8386 234.516 51.3321C234.037 49.7973 233.199 48.3461 232.002 46.9789C230.835 45.5839 229.204 43.9655 227.109 42.1239L220.016 35.8459C214.719 31.1858 212.07 25.8563 212.07 19.8574C212.07 13.5792 213.627 8.79386 216.739 5.5013C219.881 2.20875 224.416 0.5625 230.341 0.5625C237.583 0.5625 242.716 2.36223 245.739 5.96174C248.792 9.5612 250.318 15.0302 250.318 22.3685H234.247V17.3043C234.247 16.2997 233.933 15.5185 233.304 14.9604C232.705 14.4024 231.882 14.1233 230.835 14.1233C229.578 14.1233 228.65 14.4582 228.052 15.1278C227.483 15.7696 227.199 16.6067 227.199 17.639C227.199 18.6715 227.498 19.7875 228.096 20.9876C228.695 22.1872 229.877 23.5685 231.643 25.1312L240.756 33.2928C242.582 34.9111 244.258 36.6272 245.784 38.4406C247.31 40.2265 248.537 42.3193 249.465 44.719C250.393 47.0908 250.856 49.9928 250.856 53.4245C250.856 60.3445 249.48 65.7717 246.727 69.7062C244.003 73.6123 239.245 75.5654 232.451 75.5654Z" fill="#F34875"/>
</svg>
